<svg id="Layer_1" height="512" viewBox="0 0 512 512" width="512" xmlns="http://www.w3.org/2000/svg" data-name="Layer 1"><path d="m85.288 428.425h341.424v52.852h-341.424z"/><path d="m85.288 416.377 163.891.046-.037-98.465c0-10.993-9.18-19.935-20.464-19.935h-150.223c-11.284 0-20.464 8.942-20.464 19.933v57.581a37.165 37.165 0 0 1 27.3 35.575zm104.312-89.285a8.9 8.9 0 1 1 -8.9 8.9 8.911 8.911 0 0 1 8.9-8.9zm0 42.449a8.9 8.9 0 1 1 -8.9 8.9 8.911 8.911 0 0 1 8.9-8.9zm-72.023-42.449a8.9 8.9 0 1 1 -8.9 8.9 8.912 8.912 0 0 1 8.898-8.9zm0 42.449a8.9 8.9 0 1 1 -8.9 8.9 8.912 8.912 0 0 1 8.898-8.9z"/><path d="m47.645 386.1c-14.145 0-25.645 11.222-25.645 25.012v89.153h51.288v-89.153c0-13.79-11.504-25.012-25.643-25.012z"/><path d="m451.447 317.956c0-10.991-9.18-19.933-20.465-19.933h-149.376a20.239 20.239 0 0 0 -14.458 5.94 20.681 20.681 0 0 0 -5.945 14.819l-.02 97.645 165.529.046v-5.361a37.11 37.11 0 0 1 24.735-34.766zm-131.147 69.389a8.9 8.9 0 1 1 8.9-8.9 8.913 8.913 0 0 1 -8.9 8.9zm0-42.449a8.9 8.9 0 1 1 8.9-8.9 8.913 8.913 0 0 1 -8.9 8.904zm72.021 42.449a8.9 8.9 0 1 1 8.9-8.9 8.912 8.912 0 0 1 -8.896 8.9zm0-42.449a8.9 8.9 0 1 1 8.9-8.9 8.912 8.912 0 0 1 -8.896 8.904z"/><path d="m464.355 386.1c-14.139 0-25.643 11.218-25.643 25.008v89.153h51.288v-89.149c0-13.79-11.5-25.012-25.645-25.012z"/><path d="m91.74 95.9v-78.165a6 6 0 0 0 -12 0v78.165a6 6 0 0 0 12 0z"/><path d="m128.109 144.273a42.369 42.369 0 0 0 -84.738 0v3.674h84.738zm-52.422-20.173a42.4 42.4 0 0 0 -11.043 11.478 6 6 0 1 1 -10.051-6.557 54.352 54.352 0 0 1 14.154-14.71 6 6 0 0 1 6.94 9.789z"/><path d="m86.87 165.17a10.486 10.486 0 0 0 8.886-5.223h-17.771a10.485 10.485 0 0 0 8.885 5.223z"/><path d="m153.626 242.991h113.114l-54.483-52.881z"/><path d="m280.999 240.107 2.971 2.884h80.199l-41.164-35.163z"/><circle cx="272.766" cy="170.773" r="14"/><path d="m414.455 242.991v-142.781h-296.921a54.32 54.32 0 0 1 22.575 44.063v9.674a6 6 0 0 1 -6 6h-25.433a23.578 23.578 0 0 1 -11.131 14.418v68.626h38.165l72.679-65.552a6 6 0 0 1 8.2.15l55.711 54.071 47.254-36.31a6 6 0 0 1 7.554.195l55.543 47.446zm-141.689-46.218a26 26 0 1 1 26-26 26.029 26.029 0 0 1 -26 26z"/></svg>